<svg xmlns="http://www.w3.org/2000/svg" width="1024" height="1024" viewBox="0 0 1024 1024" version="1.1">
  <path
    d="M 436.500 175.590 C 434.300 175.807, 428.302 176.475, 423.172 177.074 C 418.041 177.674, 409.266 179.268, 403.672 180.617 C 398.077 181.966, 390.125 184.220, 386 185.626 C 381.875 187.031, 372.628 191.025, 365.452 194.501 C 358.275 197.977, 347.643 204.016, 341.823 207.922 C 336.004 211.828, 326.351 219.217, 320.371 224.342 C 314.392 229.466, 304.266 239.103, 297.869 245.755 C 291.472 252.408, 282.247 262.467, 277.369 268.109 C 272.491 273.751, 264.212 283.368, 258.970 289.480 C 253.729 295.592, 244.685 306.647, 238.872 314.047 C 233.059 321.446, 226.194 330.425, 223.616 334 C 221.037 337.575, 216.020 344.873, 212.466 350.218 C 208.912 355.562, 203.968 363.379, 201.480 367.588 C 198.992 371.797, 194.735 380.024, 192.022 385.870 C 189.308 391.717, 185.294 401.900, 183.101 408.500 C 180.909 415.100, 178.164 425.225, 177.001 431 C 175.837 436.783, 174.519 448.632, 174.068 457.375 C 173.608 466.301, 173.641 476.806, 174.142 481.375 C 174.633 485.844, 175.982 494.900, 177.139 501.500 C 178.297 508.100, 180.497 517.550, 182.028 522.500 C 183.559 527.450, 186.438 535.965, 188.425 541.421 C 190.412 546.878, 196.049 559.478, 200.951 569.421 C 205.853 579.365, 211.613 590.650, 213.750 594.500 C 215.887 598.350, 218.763 603.300, 220.141 605.500 C 221.519 607.700, 222.960 610.349, 223.344 611.387 C 223.728 612.425, 228.152 620.075, 233.175 628.387 C 238.199 636.699, 245.187 647.648, 248.706 652.718 C 252.225 657.788, 256.543 663.710, 258.302 665.878 C 260.061 668.047, 262.619 671.324, 263.986 673.160 C 265.354 674.997, 269.404 679.638, 272.986 683.473 C 276.569 687.308, 280.850 691.709, 282.500 693.254 C 284.150 694.798, 289.100 699.134, 293.500 702.888 C 297.900 706.642, 306.485 713.041, 312.578 717.107 C 318.670 721.173, 324.745 725.155, 326.078 725.955 C 327.410 726.755, 334.350 730.382, 341.500 734.016 C 348.650 737.649, 358.100 742.013, 362.500 743.712 C 366.900 745.412, 374.569 748.157, 379.543 749.813 C 384.516 751.468, 394.191 754.191, 401.043 755.862 C 407.894 757.534, 417.550 759.576, 422.500 760.401 C 427.450 761.226, 436.213 762.432, 441.974 763.082 C 448.576 763.826, 459.665 764.053, 471.974 763.694 C 482.713 763.380, 496.238 762.456, 502.030 761.640 C 507.821 760.825, 517.862 758.968, 524.343 757.514 C 530.825 756.060, 542.736 752.694, 550.814 750.032 C 558.891 747.371, 569.325 743.759, 574 742.005 C 578.675 740.251, 586.325 737.488, 591 735.864 C 595.675 734.240, 602.650 732.237, 606.500 731.414 C 610.350 730.590, 617.025 729.908, 621.333 729.897 C 625.642 729.886, 631.717 730.193, 634.833 730.580 C 637.950 730.967, 644.700 732.997, 649.832 735.091 C 654.965 737.184, 661.490 740.352, 664.332 742.131 C 667.300 743.988, 689.405 765.177, 716.250 791.898 C 741.962 817.492, 763 838.010, 763 837.493 C 763 836.977, 763.644 837.474, 764.431 838.597 C 765.217 839.721, 768.996 842.085, 772.826 843.850 C 776.657 845.616, 782.876 847.714, 786.646 848.513 C 790.416 849.312, 794.850 849.965, 796.500 849.965 C 798.150 849.965, 802.650 849.307, 806.500 848.502 C 810.350 847.697, 816.811 845.369, 820.857 843.328 C 825.223 841.126, 830.538 837.329, 833.931 833.989 C 837.074 830.894, 841.039 825.917, 842.740 822.930 C 844.441 819.944, 846.819 814.575, 848.024 811 C 849.896 805.446, 850.146 802.972, 849.743 794 C 849.408 786.538, 848.644 781.866, 847.103 777.854 C 845.910 774.749, 843.086 769.349, 840.828 765.854 C 838.037 761.536, 822.223 745.079, 791.479 714.500 C 766.596 689.750, 744.802 667.348, 743.049 664.719 C 741.295 662.089, 738.553 656.766, 736.954 652.890 C 735.356 649.013, 733.362 642.522, 732.524 638.463 C 731.686 634.405, 731 628.649, 731 625.673 C 731 622.697, 731.662 616.464, 732.472 611.822 C 733.397 606.519, 735.840 598.944, 739.046 591.441 C 741.852 584.873, 744.825 578.150, 745.653 576.500 C 746.481 574.850, 748.863 569.225, 750.947 564 C 753.031 558.775, 756.139 549.951, 757.853 544.392 C 759.568 538.832, 761.865 530.507, 762.958 525.892 C 764.051 521.276, 765.715 512.550, 766.655 506.500 C 767.836 498.905, 768.381 489.155, 768.416 475 C 768.445 463.327, 767.917 450.709, 767.189 445.697 C 766.486 440.855, 764.599 430.280, 762.995 422.197 C 761.390 414.114, 757.616 399.400, 754.608 389.500 C 751.600 379.600, 748.049 368.125, 746.717 364 C 745.386 359.875, 741.697 349.090, 738.519 340.034 C 735.342 330.977, 730.143 318.067, 726.965 311.344 C 723.788 304.622, 718.593 294.707, 715.422 289.311 C 712.250 283.915, 706.167 275, 701.904 269.500 C 697.641 264, 690.856 256.274, 686.826 252.332 C 682.797 248.390, 676.185 242.478, 672.134 239.195 C 668.082 235.911, 658.407 229.617, 650.634 225.208 C 642.860 220.798, 635.041 216.463, 633.259 215.574 C 631.476 214.685, 626.526 212.582, 622.259 210.901 C 617.991 209.220, 611.350 206.722, 607.500 205.349 C 603.650 203.977, 596 201.572, 590.500 200.004 C 585 198.437, 575.949 196.002, 570.386 194.594 C 564.823 193.186, 547.909 189.348, 532.799 186.065 C 517.690 182.782, 499.066 179.150, 491.413 177.995 C 482.365 176.628, 471.031 175.771, 459 175.544 C 448.825 175.353, 438.700 175.373, 436.500 175.590 M 457 248.098 C 451.775 248.551, 444.575 249.411, 441 250.010 C 437.425 250.609, 430 252.220, 424.500 253.591 C 419 254.962, 409.775 257.689, 404 259.652 C 398.225 261.614, 387.650 266.016, 380.500 269.432 C 373.350 272.849, 361.757 279.524, 354.737 284.265 C 347.718 289.006, 338.043 296.239, 333.237 300.338 C 328.432 304.436, 321.757 310.649, 318.406 314.145 C 315.054 317.640, 309.339 324.195, 305.707 328.712 C 302.075 333.228, 296.298 341.096, 292.869 346.195 C 289.440 351.295, 283.629 361.403, 279.956 368.657 C 276.283 375.912, 271.650 386.280, 269.660 391.699 C 267.669 397.117, 264.703 406.714, 263.068 413.025 C 261.433 419.336, 259.380 429.675, 258.507 436 C 257.634 442.325, 256.650 454.025, 256.320 462 C 255.954 470.854, 256.185 480.588, 256.914 487 C 257.571 492.775, 259.411 504.025, 261.003 512 C 262.596 519.975, 265.753 531.874, 268.019 538.442 C 270.285 545.010, 274.682 556.028, 277.790 562.927 C 280.898 569.825, 286.300 580.202, 289.794 585.985 C 293.288 591.768, 299.225 600.550, 302.986 605.500 C 306.747 610.450, 314.476 619.249, 320.162 625.053 C 325.848 630.858, 333.875 638.318, 338 641.632 C 342.125 644.945, 348.875 649.908, 353 652.659 C 357.125 655.410, 365 660.193, 370.500 663.289 C 376 666.384, 383.875 670.313, 388 672.018 C 392.125 673.724, 399.828 676.632, 405.117 678.480 C 410.406 680.328, 419.944 683.008, 426.312 684.437 C 432.680 685.865, 442.527 687.670, 448.195 688.448 C 453.863 689.226, 463.450 690.161, 469.500 690.527 C 475.672 690.900, 485.767 690.702, 492.500 690.077 C 499.100 689.464, 509.580 688.047, 515.788 686.929 C 521.997 685.811, 531.815 683.538, 537.607 681.877 C 543.398 680.217, 551.030 677.770, 554.566 676.439 C 558.103 675.108, 565.937 671.541, 571.976 668.512 C 578.015 665.483, 586.003 661.143, 589.728 658.867 C 593.453 656.591, 601.450 651.022, 607.500 646.492 C 613.550 641.961, 623.967 632.685, 630.649 625.877 C 637.331 619.070, 644.094 611.925, 645.678 610 C 647.263 608.075, 650.373 604.025, 652.589 601 C 654.805 597.975, 657.731 593.925, 659.090 592 C 660.449 590.075, 663.922 584.601, 666.806 579.835 C 669.691 575.069, 674.225 566.519, 676.883 560.835 C 679.540 555.151, 683.618 545.100, 685.946 538.500 C 688.273 531.900, 691.450 520.364, 693.005 512.865 C 694.561 505.366, 696.384 493.891, 697.057 487.365 C 697.808 480.085, 698.050 469.703, 697.683 460.500 C 697.354 452.250, 696.176 440.247, 695.066 433.826 C 693.956 427.406, 691.872 417.365, 690.434 411.514 C 688.997 405.663, 685.598 395.214, 682.881 388.295 C 680.164 381.375, 675.658 371.270, 672.868 365.839 C 670.079 360.408, 664.855 351.584, 661.261 346.232 C 657.666 340.879, 651.774 332.900, 648.167 328.500 C 644.560 324.100, 639.110 317.866, 636.055 314.648 C 633 311.429, 625.550 304.634, 619.500 299.548 C 613.450 294.462, 604.450 287.600, 599.500 284.299 C 594.550 280.998, 586.225 276.017, 581 273.230 C 575.775 270.443, 567.675 266.602, 563 264.695 C 558.325 262.787, 549.715 259.622, 543.867 257.662 C 538.019 255.702, 527.669 252.972, 520.867 251.595 C 514.065 250.218, 502.697 248.621, 495.605 248.046 C 488.512 247.471, 479.062 247.062, 474.605 247.138 C 470.147 247.213, 462.225 247.645, 457 248.098"
    stroke="none" fill="#6899e8" fill-rule="evenodd" />
  <path
    d="M 400.654 353.554 C 395.239 354.821, 390.580 356.086, 390.301 356.366 C 390.021 356.645, 391.414 361.741, 393.396 367.689 C 395.378 373.637, 397 378.840, 397 379.252 C 397 379.663, 378.550 380, 356 380 L 315 380 315 391.893 C 315 402.167, 315.232 403.875, 316.701 404.439 C 317.637 404.798, 324.499 405.021, 331.951 404.934 L 345.500 404.776 350.511 419.693 C 353.267 427.898, 358.089 439.761, 361.227 446.055 C 364.366 452.350, 369.563 461.550, 372.777 466.500 C 375.990 471.450, 379.268 476.176, 380.060 477.003 C 380.852 477.829, 383.177 480.702, 385.226 483.386 C 387.276 486.071, 388.723 488.639, 388.443 489.093 C 388.162 489.546, 384.235 492.320, 379.716 495.257 C 375.197 498.193, 367.675 502.668, 363 505.200 C 358.325 507.732, 349.775 511.807, 344 514.256 C 338.225 516.704, 329 520.184, 323.500 521.990 C 318 523.795, 313.334 525.415, 313.132 525.588 C 312.929 525.762, 315.582 530.918, 319.027 537.048 C 325.142 547.928, 325.361 548.178, 328.272 547.596 C 329.912 547.268, 335.359 545.376, 340.377 543.392 C 345.395 541.409, 355.361 536.988, 362.525 533.568 C 369.689 530.149, 378.763 525.475, 382.689 523.181 C 386.616 520.888, 393.746 516.057, 398.534 512.446 L 407.239 505.880 412.870 510.426 C 415.966 512.926, 423.450 518.304, 429.500 522.378 C 435.550 526.452, 445.900 532.461, 452.500 535.731 C 459.100 539.001, 465.977 542.259, 467.782 542.973 C 469.587 543.686, 471.202 544.096, 471.370 543.885 C 471.539 543.673, 473.526 538.775, 475.787 533 C 478.048 527.225, 480.193 521.712, 480.556 520.750 C 480.932 519.750, 480.746 519, 480.122 519 C 479.521 519, 472.160 515.655, 463.765 511.567 C 455.369 507.479, 444.631 501.516, 439.902 498.317 C 435.172 495.118, 430.112 491.600, 428.657 490.500 L 426.011 488.500 432.045 481 C 435.363 476.875, 440.946 468.775, 444.451 463 C 447.957 457.225, 452.707 448.450, 455.008 443.500 C 457.309 438.550, 461.351 427.975, 463.990 420 L 468.790 405.500 483.645 405 L 498.500 404.500 498.781 392.250 L 499.062 380 461.156 380 L 423.250 380 422.633 376.750 C 422.293 374.962, 420.351 368.438, 418.318 362.250 C 415.148 352.607, 414.326 351.018, 412.560 351.125 C 411.427 351.194, 406.069 352.287, 400.654 353.554 M 370 405.420 C 370 405.651, 371.394 409.791, 373.098 414.618 C 374.802 419.446, 378.109 427.244, 380.447 431.948 C 382.785 436.652, 385.674 442.216, 386.868 444.314 C 388.061 446.411, 389.799 449.336, 390.729 450.814 C 391.659 452.291, 394.422 456.200, 396.869 459.500 C 399.315 462.800, 402.651 466.928, 404.281 468.674 C 407.068 471.658, 407.351 471.748, 409.003 470.174 C 409.970 469.253, 413.038 465.473, 415.822 461.773 C 418.607 458.074, 422.758 451.838, 425.049 447.917 C 427.339 443.996, 431.136 436.894, 433.486 432.136 C 435.837 427.378, 438.939 419.753, 440.380 415.191 C 441.821 410.629, 443 406.470, 443 405.948 C 443 405.368, 428.842 405, 406.500 405 C 386.425 405, 370 405.189, 370 405.420 M 533 425.354 C 533 425.549, 528.781 437.586, 523.624 452.104 C 518.467 466.622, 510.627 488.625, 506.202 501 C 501.777 513.375, 493.148 537.675, 487.027 555 C 480.905 572.325, 475.709 587.063, 475.480 587.750 C 475.157 588.717, 478.850 589, 491.781 588.998 L 508.500 588.996 515.075 569.248 L 521.650 549.500 551.840 549.235 L 582.029 548.971 582.972 551.235 C 583.491 552.481, 586.448 561.487, 589.543 571.250 L 595.172 589 612.086 589 C 621.389 589, 629 588.604, 629 588.121 C 629 587.637, 623.632 572.225, 617.071 553.871 C 610.510 535.517, 600.203 506.550, 594.167 489.500 C 588.131 472.450, 580.561 450.968, 577.346 441.763 L 571.500 425.025 552.250 425.013 C 541.663 425.006, 533 425.159, 533 425.354 M 551.531 459.087 C 551.238 459.864, 546.682 473.325, 541.407 489 C 536.131 504.675, 531.579 518.513, 531.291 519.750 L 530.767 522 551.883 522 C 566.271 522, 573 521.658, 573 520.925 C 573 520.335, 568.289 505.861, 562.531 488.762 C 556.774 471.663, 551.823 458.309, 551.531 459.087"
    stroke="none" fill="#125ab7" fill-rule="evenodd" />
  <path
    d="M 457 248.098 C 451.775 248.551, 444.575 249.411, 441 250.010 C 437.425 250.609, 430 252.220, 424.500 253.591 C 419 254.962, 409.775 257.689, 404 259.652 C 398.225 261.614, 387.650 266.016, 380.500 269.432 C 373.350 272.849, 361.757 279.524, 354.737 284.265 C 347.718 289.006, 338.043 296.239, 333.237 300.338 C 328.432 304.436, 321.757 310.649, 318.406 314.145 C 315.054 317.640, 309.339 324.195, 305.707 328.712 C 302.075 333.228, 296.298 341.096, 292.869 346.195 C 289.440 351.295, 283.629 361.403, 279.956 368.657 C 276.283 375.912, 271.650 386.280, 269.660 391.699 C 267.669 397.117, 264.703 406.714, 263.068 413.025 C 261.433 419.336, 259.380 429.675, 258.507 436 C 257.634 442.325, 256.650 454.025, 256.320 462 C 255.954 470.854, 256.185 480.588, 256.914 487 C 257.571 492.775, 259.411 504.025, 261.003 512 C 262.596 519.975, 265.753 531.874, 268.019 538.442 C 270.285 545.010, 274.682 556.028, 277.790 562.927 C 280.898 569.825, 286.300 580.202, 289.794 585.985 C 293.288 591.768, 299.225 600.550, 302.986 605.500 C 306.747 610.450, 314.476 619.249, 320.162 625.053 C 325.848 630.858, 333.875 638.318, 338 641.632 C 342.125 644.945, 348.875 649.908, 353 652.659 C 357.125 655.410, 365 660.193, 370.500 663.289 C 376 666.384, 383.875 670.313, 388 672.018 C 392.125 673.724, 399.828 676.632, 405.117 678.480 C 410.406 680.328, 419.944 683.008, 426.312 684.437 C 432.680 685.865, 442.527 687.670, 448.195 688.448 C 453.863 689.226, 463.450 690.161, 469.500 690.527 C 475.672 690.900, 485.767 690.702, 492.500 690.077 C 499.100 689.464, 509.580 688.047, 515.788 686.929 C 521.997 685.811, 531.815 683.538, 537.607 681.877 C 543.398 680.217, 551.030 677.770, 554.566 676.439 C 558.103 675.108, 565.937 671.541, 571.976 668.512 C 578.015 665.483, 586.003 661.143, 589.728 658.867 C 593.453 656.591, 601.450 651.022, 607.500 646.492 C 613.550 641.961, 623.967 632.685, 630.649 625.877 C 637.331 619.070, 644.094 611.925, 645.678 610 C 647.263 608.075, 650.373 604.025, 652.589 601 C 654.805 597.975, 657.731 593.925, 659.090 592 C 660.449 590.075, 663.922 584.601, 666.806 579.835 C 669.691 575.069, 674.225 566.519, 676.883 560.835 C 679.540 555.151, 683.618 545.100, 685.946 538.500 C 688.273 531.900, 691.450 520.364, 693.005 512.865 C 694.561 505.366, 696.384 493.891, 697.057 487.365 C 697.808 480.085, 698.050 469.703, 697.683 460.500 C 697.354 452.250, 696.176 440.247, 695.066 433.826 C 693.956 427.406, 691.872 417.365, 690.434 411.514 C 688.997 405.663, 685.598 395.214, 682.881 388.295 C 680.164 381.375, 675.658 371.270, 672.868 365.839 C 670.079 360.408, 664.855 351.584, 661.261 346.232 C 657.666 340.879, 651.774 332.900, 648.167 328.500 C 644.560 324.100, 639.110 317.866, 636.055 314.648 C 633 311.429, 625.550 304.634, 619.500 299.548 C 613.450 294.462, 604.450 287.600, 599.500 284.299 C 594.550 280.998, 586.225 276.017, 581 273.230 C 575.775 270.443, 567.675 266.602, 563 264.695 C 558.325 262.787, 549.715 259.622, 543.867 257.662 C 538.019 255.702, 527.669 252.972, 520.867 251.595 C 514.065 250.218, 502.697 248.621, 495.605 248.046 C 488.512 247.471, 479.062 247.062, 474.605 247.138 C 470.147 247.213, 462.225 247.645, 457 248.098 M 409.500 351.071 C 407.300 351.544, 401.990 352.700, 397.701 353.640 C 393.412 354.580, 389.725 355.636, 389.509 355.986 C 389.293 356.335, 390.665 361.502, 392.558 367.468 C 394.451 373.433, 396 378.708, 396 379.189 C 396 379.675, 378.775 380.035, 357.250 379.999 C 335.938 379.963, 317.488 379.949, 316.250 379.967 C 314.038 379.999, 314 380.213, 314 392.500 C 314 400.083, 314.393 405.049, 315 405.125 C 315.550 405.194, 316.450 405.363, 317 405.500 C 317.550 405.637, 324.188 405.809, 331.750 405.880 L 345.500 406.010 347.932 414.255 C 349.269 418.790, 352.269 427.225, 354.599 433 C 356.928 438.775, 360.487 446.650, 362.507 450.500 C 364.527 454.350, 368.036 460.425, 370.306 464 C 372.576 467.575, 377.109 474.100, 380.379 478.500 C 383.649 482.900, 386.711 487.007, 387.183 487.626 C 387.756 488.380, 384.655 490.962, 377.802 495.435 C 372.171 499.110, 361.699 504.972, 354.532 508.460 C 347.364 511.948, 336.550 516.596, 330.500 518.788 C 324.450 520.980, 318.038 523.085, 316.250 523.466 C 313.978 523.951, 313 524.726, 313 526.044 C 313 527.081, 315.524 532.333, 318.610 537.715 C 321.695 543.097, 324.619 547.927, 325.108 548.448 C 325.663 549.040, 327.968 548.702, 331.248 547.546 C 334.137 546.528, 341.342 543.742, 347.260 541.355 C 353.179 538.968, 361.279 535.376, 365.260 533.372 C 369.242 531.369, 376.383 527.543, 381.128 524.870 C 385.874 522.197, 393.682 517.049, 398.479 513.431 L 407.203 506.851 412.851 511.410 C 415.958 513.917, 423.225 519.169, 429 523.080 C 434.775 526.991, 445.800 533.268, 453.500 537.028 C 461.200 540.787, 468.468 544.136, 469.652 544.468 C 471.607 545.017, 472.223 543.995, 476.402 533.252 C 478.931 526.751, 481 520.935, 481 520.327 C 481 519.719, 473.687 515.631, 464.748 511.241 C 455.810 506.852, 443.652 500.021, 437.731 496.062 C 430.812 491.435, 427.218 488.441, 427.672 487.682 C 428.060 487.032, 430.712 483.575, 433.565 480 C 436.418 476.425, 440.826 470.243, 443.361 466.263 C 445.896 462.282, 450.391 454.182, 453.349 448.263 C 456.307 442.343, 460.334 433, 462.297 427.500 C 464.261 422, 466.685 414.840, 467.684 411.589 L 469.500 405.679 483.500 405.845 C 491.200 405.936, 498.077 405.635, 498.782 405.177 C 499.736 404.556, 499.992 401.216, 499.782 392.123 L 499.500 379.903 461.913 379.974 L 424.326 380.044 422.193 372.272 C 421.020 367.997, 418.962 361.363, 417.620 357.530 C 416.278 353.696, 414.802 350.482, 414.340 350.386 C 413.878 350.290, 411.700 350.598, 409.500 351.071 M 372.177 405.891 C 371.525 406.294, 372.188 409.542, 374.002 414.835 C 375.569 419.407, 379.110 427.774, 381.872 433.429 C 384.634 439.084, 389.594 447.713, 392.894 452.605 C 396.194 457.497, 400.719 463.525, 402.951 466 L 407.008 470.500 412.438 464.568 C 415.425 461.305, 420.603 454.044, 423.946 448.433 C 427.289 442.821, 431.548 434.915, 433.412 430.865 C 435.275 426.814, 437.969 420.091, 439.399 415.925 C 440.830 411.758, 442 407.570, 442 406.617 C 442 405.003, 439.636 404.897, 407.600 405.071 C 388.680 405.174, 372.740 405.543, 372.177 405.891 M 532.484 425.250 C 532.235 425.938, 530.181 431.675, 527.919 438 C 525.657 444.325, 522.319 453.775, 520.501 459 C 518.683 464.225, 512.167 482.450, 506.022 499.500 C 499.876 516.550, 492.013 538.600, 488.547 548.500 C 485.082 558.400, 480.431 571.527, 478.211 577.671 C 475.992 583.816, 474.436 589.103, 474.755 589.421 C 475.073 589.740, 482.871 590, 492.084 590 L 508.834 590 515.500 570 L 522.166 550 551.983 550 L 581.800 550 587.435 567.750 C 590.535 577.513, 593.495 586.513, 594.014 587.750 C 594.941 589.962, 595.254 590, 612.479 590 C 622.364 590, 630 589.603, 630 589.088 C 630 588.587, 625.912 576.774, 620.915 562.838 C 615.918 548.902, 608.748 528.725, 604.981 518 C 601.214 507.275, 596.269 493.325, 593.992 487 C 591.715 480.675, 586.471 465.825, 582.339 454 C 578.206 442.175, 574.148 430.587, 573.319 428.250 L 571.812 424 552.375 424 C 537.733 424, 532.826 424.308, 532.484 425.250 M 546.543 476.253 C 543.817 484.639, 539.291 498.077, 536.487 506.115 L 531.388 520.730 541.800 521.404 C 547.527 521.774, 556.665 521.770, 562.107 521.395 C 567.548 521.021, 572 520.416, 572 520.051 C 572 519.686, 568.583 509.288, 564.407 496.944 C 560.230 484.600, 555.885 471.462, 554.750 467.750 C 553.615 464.038, 552.419 461.002, 552.093 461.003 C 551.767 461.005, 549.269 467.868, 546.543 476.253"
    stroke="none" fill="#d8e9fc" fill-rule="evenodd" />
</svg>