<svg xmlns="http://www.w3.org/2000/svg" width="1024" height="1024" viewBox="0 0 1024 1024" version="1.1">
    <circle cx="512" cy="512" r="512" fill="#dae7fa" />
    <path
        d="M 436.500 175.590 C 405.757 178.620, 389.070 183.062, 365.452 194.501 C 341.868 205.924, 320.823 221.884, 297.869 245.755 C 281.517 262.761, 255.531 292.840, 238.872 314.047 C 208.201 353.090, 192.901 379.002, 183.101 408.500 C 177.545 425.226, 175.022 438.876, 174.068 457.375 C 172.629 485.296, 176.730 509.307, 188.425 541.421 C 193.439 555.191, 211.554 591.790, 220.141 605.500 C 221.519 607.700, 222.960 610.349, 223.344 611.387 C 225.615 617.524, 250.329 656.049, 258.302 665.878 C 260.061 668.047, 262.619 671.324, 263.986 673.160 C 276.054 689.369, 302.262 711.652, 326.078 725.955 C 332.463 729.790, 355.375 740.960, 362.500 743.712 C 400.544 758.407, 435.358 764.762, 471.974 763.694 C 507.870 762.646, 533.493 757.199, 574 742.005 C 605.143 730.323, 616.134 728.259, 634.833 730.580 C 641.396 731.395, 656.839 737.442, 664.332 742.131 C 667.300 743.988, 689.405 765.177, 716.250 791.898 C 741.962 817.492, 763 838.010, 763 837.493 C 763 836.977, 763.644 837.474, 764.431 838.597 C 767.472 842.940, 787.291 849.965, 796.500 849.965 C 802.587 849.965, 813.705 846.936, 820.857 843.328 C 833.716 836.842, 843.064 825.719, 848.024 811 C 849.896 805.446, 850.146 802.972, 849.743 794 C 849.202 781.939, 847.259 775.805, 840.828 765.854 C 838.037 761.536, 822.223 745.079, 791.479 714.500 C 766.596 689.750, 744.802 667.348, 743.049 664.719 C 736.317 654.623, 731 637.392, 731 625.673 C 731 612.850, 736.240 595.266, 745.653 576.500 C 754.016 559.829, 763.042 529.744, 766.655 506.500 C 768.767 492.917, 769.068 458.639, 767.189 445.697 C 762.933 416.378, 754.844 386.565, 738.519 340.034 C 722.607 294.677, 702.031 263.423, 672.134 239.195 C 665.915 234.155, 644.831 221.344, 633.259 215.574 C 625.007 211.460, 604.525 204.001, 590.500 200.004 C 565.462 192.868, 513.562 181.340, 491.413 177.995 C 478.155 175.992, 446.490 174.605, 436.500 175.590 M 457 248.098 C 412.573 251.948, 367.832 270.832, 333.237 300.338 C 293.341 334.365, 265.581 384.758, 258.507 436 C 252.447 479.900, 258.583 520.291, 277.790 562.927 C 305.643 624.754, 360.571 669.692, 426.312 684.437 C 450.281 689.812, 473.788 691.816, 492.500 690.077 C 523.143 687.229, 548.225 680.424, 571.976 668.512 C 595.028 656.951, 612.884 643.976, 630.649 625.877 C 645.267 610.984, 647.892 607.857, 659.090 592 C 684.810 555.577, 699.482 505.587, 697.683 460.500 C 695.484 405.369, 674.077 354.708, 636.055 314.648 C 628.257 306.432, 610.160 291.407, 599.500 284.299 C 557.770 256.470, 507.568 243.717, 457 248.098"
        stroke="none" fill="#6899e8" fill-rule="evenodd" />
    <path
        d="M 400.654 353.554 C 395.239 354.821, 390.580 356.086, 390.301 356.366 C 390.021 356.645, 391.414 361.741, 393.396 367.689 C 395.378 373.637, 397 378.840, 397 379.252 C 397 379.663, 378.550 380, 356 380 L 315 380 315 391.893 C 315 402.167, 315.232 403.875, 316.701 404.439 C 317.637 404.798, 324.499 405.021, 331.951 404.934 L 345.500 404.776 350.511 419.693 C 353.267 427.898, 358.089 439.761, 361.227 446.055 C 366.577 456.785, 376.828 473.631, 380.060 477.003 C 383.610 480.707, 388.905 488.344, 388.443 489.093 C 387.600 490.457, 372.085 500.279, 363 505.200 C 352.279 511.007, 336.416 517.750, 323.500 521.990 C 318 523.795, 313.334 525.415, 313.132 525.588 C 312.929 525.762, 315.582 530.918, 319.027 537.048 C 325.142 547.928, 325.361 548.178, 328.272 547.596 C 336.011 546.048, 368.476 531.482, 382.689 523.181 C 386.616 520.888, 393.746 516.057, 398.534 512.446 L 407.239 505.880 412.870 510.426 C 423.167 518.738, 440.355 529.713, 452.500 535.731 C 465.424 542.134, 470.885 544.494, 471.370 543.885 C 471.624 543.566, 478.253 526.869, 480.556 520.750 C 480.932 519.750, 480.746 519, 480.122 519 C 479.521 519, 472.160 515.655, 463.765 511.567 C 450.553 505.133, 438.248 497.750, 428.657 490.500 L 426.011 488.500 432.045 481 C 445.225 464.616, 456.092 443.865, 463.990 420 L 468.790 405.500 483.645 405 L 498.500 404.500 498.781 392.250 L 499.062 380 461.156 380 L 423.250 380 422.633 376.750 C 422.293 374.962, 420.351 368.438, 418.318 362.250 C 414.062 349.301, 415.598 350.058, 400.654 353.554 M 370 405.420 C 370 405.651, 371.394 409.791, 373.098 414.618 C 379.931 433.976, 392.942 456.532, 404.281 468.674 C 407.794 472.435, 407.803 472.430, 415.822 461.773 C 425.486 448.933, 436.053 428.887, 440.380 415.191 C 441.821 410.629, 443 406.470, 443 405.948 C 443 405.368, 428.842 405, 406.500 405 C 386.425 405, 370 405.189, 370 405.420 M 533 425.354 C 533 425.721, 520.202 461.848, 506.202 501 C 499.109 520.836, 476.590 584.421, 475.480 587.750 C 475.157 588.717, 478.850 589, 491.781 588.998 L 508.500 588.996 515.075 569.248 L 521.650 549.500 551.840 549.235 L 582.029 548.971 582.972 551.235 C 583.491 552.481, 586.448 561.487, 589.543 571.250 L 595.172 589 612.086 589 C 621.389 589, 629 588.604, 629 588.121 C 629 587.637, 623.632 572.225, 617.071 553.871 C 603.221 515.128, 585.718 465.733, 577.346 441.763 L 571.500 425.025 552.250 425.013 C 541.663 425.006, 533 425.159, 533 425.354 M 551.531 459.087 C 549.867 463.507, 531.728 517.873, 531.291 519.750 L 530.767 522 551.883 522 C 566.271 522, 573 521.658, 573 520.925 C 573 518.295, 552.006 457.825, 551.531 459.087"
        stroke="none" fill="#125ab7" fill-rule="evenodd" />
    <path
        d="M 457 248.098 C 412.573 251.948, 367.832 270.832, 333.237 300.338 C 293.341 334.365, 265.581 384.758, 258.507 436 C 252.447 479.900, 258.583 520.291, 277.790 562.927 C 305.643 624.754, 360.571 669.692, 426.312 684.437 C 450.281 689.812, 473.788 691.816, 492.500 690.077 C 523.143 687.229, 548.225 680.424, 571.976 668.512 C 595.028 656.951, 612.884 643.976, 630.649 625.877 C 645.267 610.984, 647.892 607.857, 659.090 592 C 684.810 555.577, 699.482 505.587, 697.683 460.500 C 695.484 405.369, 674.077 354.708, 636.055 314.648 C 628.257 306.432, 610.160 291.407, 599.500 284.299 C 557.770 256.470, 507.568 243.717, 457 248.098 M 409.500 351.071 C 394.201 354.358, 389.854 355.426, 389.509 355.986 C 389.293 356.335, 390.665 361.502, 392.558 367.468 C 394.451 373.433, 396 378.708, 396 379.189 C 396 379.675, 378.775 380.035, 357.250 379.999 C 335.938 379.963, 317.488 379.949, 316.250 379.967 C 314.038 379.999, 314 380.213, 314 392.500 C 314 400.083, 314.393 405.049, 315 405.125 C 315.550 405.194, 316.450 405.363, 317 405.500 C 317.550 405.637, 324.188 405.809, 331.750 405.880 L 345.500 406.010 347.932 414.255 C 355.658 440.449, 366.018 459.815, 387.183 487.626 C 388.415 489.246, 370.424 500.725, 354.532 508.460 C 341.926 514.595, 322.924 522.044, 316.250 523.466 C 313.978 523.951, 313 524.726, 313 526.044 C 313 527.742, 322.940 546.135, 325.108 548.448 C 326.102 549.509, 330.671 548.046, 347.260 541.355 C 366.706 533.511, 385.285 523.382, 398.479 513.431 L 407.203 506.851 412.851 511.410 C 423.920 520.343, 439.708 530.293, 453.500 537.028 C 461.200 540.787, 468.468 544.136, 469.652 544.468 C 471.607 545.017, 472.223 543.995, 476.402 533.252 C 478.931 526.751, 481 520.935, 481 520.327 C 481 519.719, 473.687 515.631, 464.748 511.241 C 446.654 502.355, 426.541 489.576, 427.672 487.682 C 428.060 487.032, 430.712 483.575, 433.565 480 C 447.607 462.404, 459.234 439.092, 467.684 411.589 L 469.500 405.679 483.500 405.845 C 491.200 405.936, 498.077 405.635, 498.782 405.177 C 499.736 404.556, 499.992 401.216, 499.782 392.123 L 499.500 379.903 461.913 379.974 L 424.326 380.044 422.193 372.272 C 419.200 361.364, 415.334 350.592, 414.340 350.386 C 413.878 350.290, 411.700 350.598, 409.500 351.071 M 372.177 405.891 C 370.754 406.770, 375.669 420.729, 381.872 433.429 C 387.375 444.696, 396.613 458.970, 402.951 466 L 407.008 470.500 412.438 464.568 C 421.597 454.563, 433.520 433.052, 439.399 415.925 C 443.613 403.652, 447.140 404.856, 407.600 405.071 C 388.680 405.174, 372.740 405.543, 372.177 405.891 M 532.484 425.250 C 529.761 432.770, 523.124 451.463, 520.501 459 C 518.683 464.225, 512.167 482.450, 506.022 499.500 C 499.876 516.550, 492.013 538.600, 488.547 548.500 C 485.082 558.400, 480.431 571.527, 478.211 577.671 C 475.992 583.816, 474.436 589.103, 474.755 589.421 C 475.073 589.740, 482.871 590, 492.084 590 L 508.834 590 515.500 570 L 522.166 550 551.983 550 L 581.800 550 587.435 567.750 C 590.535 577.513, 593.495 586.513, 594.014 587.750 C 594.941 589.962, 595.254 590, 612.479 590 C 622.364 590, 630 589.603, 630 589.088 C 630 588.587, 625.912 576.774, 620.915 562.838 C 615.918 548.902, 608.748 528.725, 604.981 518 C 601.214 507.275, 596.269 493.325, 593.992 487 C 591.715 480.675, 586.471 465.825, 582.339 454 C 578.206 442.175, 574.148 430.587, 573.319 428.250 L 571.812 424 552.375 424 C 537.733 424, 532.826 424.308, 532.484 425.250 M 546.543 476.253 C 543.817 484.639, 539.291 498.077, 536.487 506.115 L 531.388 520.730 541.800 521.404 C 552.533 522.098, 572 521.226, 572 520.051 C 572 519.686, 568.583 509.288, 564.407 496.944 C 560.230 484.600, 555.885 471.462, 554.750 467.750 C 553.615 464.038, 552.419 461.002, 552.093 461.003 C 551.767 461.005, 549.269 467.868, 546.543 476.253"
        stroke="none" fill="#d8e9fc" fill-rule="evenodd" />
</svg>